<svg xmlns="http://www.w3.org/2000/svg" viewBox="0 0 300 160" width="300" height="160" fill="none">
  <defs>
    <linearGradient id="g1" x1="0" y1="0" x2="1" y2="1">
      <stop offset="0" stop-color="#dbeafe"/>
      <stop offset="1" stop-color="#e0e7ff"/>
    </linearGradient>
  </defs>
  <rect x="0" y="0" width="300" height="160" rx="14" fill="url(#g1)"/>
  <g opacity="0.8">
    <rect x="24" y="28" width="84" height="18" rx="9" fill="#2a7de1"/>
    <rect x="24" y="54" width="180" height="12" rx="6" fill="#1f2937" opacity="0.2"/>
    <rect x="24" y="72" width="160" height="12" rx="6" fill="#1f2937" opacity="0.15"/>
    <rect x="24" y="90" width="140" height="12" rx="6" fill="#1f2937" opacity="0.12"/>
    <rect x="24" y="108" width="120" height="12" rx="6" fill="#1f2937" opacity="0.1"/>
  </g>
  <g>
    <path d="M72 40h10l10 20-10 10a60 60 0 0 0 30 30l10-10 20 10v10a15 15 0 0 1-15 15c-46.95 0-85-38.05-85-85a15 15 0 0 1 15-15z" fill="#2a7de1" opacity="0.9"/>
  </g>
</svg>

